<svg xmlns="http://www.w3.org/2000/svg" xmlns:xlink="http://www.w3.org/1999/xlink" width="485px" height="85px" version="1.1"><g transform="translate(0.5,0.5)"><rect x="2" y="2" width="160" height="40" fill="#dae8fc" stroke="#6c8ebf" pointer-events="none"/><rect x="2" y="2" width="160" height="40" fill="#dae8fc" stroke="#6c8ebf" stroke-width="3" pointer-events="none"/><path d="M 42 42 L 42 2" fill="none" stroke="#6c8ebf" stroke-miterlimit="10" pointer-events="none"/><path d="M 82 42 L 82 2" fill="none" stroke="#6c8ebf" stroke-miterlimit="10" pointer-events="none"/><path d="M 122 42 L 122 2" fill="none" stroke="#6c8ebf" stroke-miterlimit="10" pointer-events="none"/><rect x="2" y="42" width="120" height="40" fill="#dae8fc" stroke="#6c8ebf" pointer-events="none"/><rect x="2" y="42" width="120" height="40" fill="#dae8fc" stroke="#6c8ebf" stroke-width="3" pointer-events="none"/><path d="M 42 82 L 42 42" fill="none" stroke="#6c8ebf" stroke-miterlimit="10" pointer-events="none"/><path d="M 82 82 L 82 42" fill="none" stroke="#6c8ebf" stroke-miterlimit="10" pointer-events="none"/><rect x="162" y="2" width="160" height="40" fill="#dae8fc" stroke="#6c8ebf" pointer-events="none"/><rect x="162" y="2" width="160" height="40" fill="#dae8fc" stroke="#6c8ebf" stroke-width="3" pointer-events="none"/><path d="M 202 42 L 202 2" fill="none" stroke="#6c8ebf" stroke-miterlimit="10" pointer-events="none"/><path d="M 242 42 L 242 2" fill="none" stroke="#6c8ebf" stroke-miterlimit="10" pointer-events="none"/><path d="M 282 42 L 282 2" fill="none" stroke="#6c8ebf" stroke-miterlimit="10" pointer-events="none"/><rect x="322" y="2" width="160" height="40" fill="#dae8fc" stroke="#6c8ebf" pointer-events="none"/><rect x="322" y="2" width="160" height="40" fill="#dae8fc" stroke="#6c8ebf" stroke-width="3" pointer-events="none"/><path d="M 362 42 L 362 2" fill="none" stroke="#6c8ebf" stroke-miterlimit="10" pointer-events="none"/><path d="M 402 42 L 402 2" fill="none" stroke="#6c8ebf" stroke-miterlimit="10" pointer-events="none"/><path d="M 442 42 L 442 2" fill="none" stroke="#6c8ebf" stroke-miterlimit="10" pointer-events="none"/><rect x="122" y="42" width="120" height="40" fill="#dae8fc" stroke="#6c8ebf" pointer-events="none"/><rect x="122" y="42" width="120" height="40" fill="#dae8fc" stroke="#6c8ebf" stroke-width="3" pointer-events="none"/><path d="M 162 82 L 162 42" fill="none" stroke="#6c8ebf" stroke-miterlimit="10" pointer-events="none"/><path d="M 202 82 L 202 42" fill="none" stroke="#6c8ebf" stroke-miterlimit="10" pointer-events="none"/><rect x="242" y="42" width="120" height="40" fill="#dae8fc" stroke="#6c8ebf" pointer-events="none"/><rect x="242" y="42" width="120" height="40" fill="#dae8fc" stroke="#6c8ebf" stroke-width="3" pointer-events="none"/><path d="M 282 82 L 282 42" fill="none" stroke="#6c8ebf" stroke-miterlimit="10" pointer-events="none"/><path d="M 322 82 L 322 42" fill="none" stroke="#6c8ebf" stroke-miterlimit="10" pointer-events="none"/><rect x="362" y="42" width="120" height="40" fill="#dae8fc" stroke="#6c8ebf" pointer-events="none"/><rect x="362" y="42" width="120" height="40" fill="#dae8fc" stroke="#6c8ebf" stroke-width="3" pointer-events="none"/><path d="M 402 82 L 402 42" fill="none" stroke="#6c8ebf" stroke-miterlimit="10" pointer-events="none"/><path d="M 442 82 L 442 42" fill="none" stroke="#6c8ebf" stroke-miterlimit="10" pointer-events="none"/></g></svg>