<svg width="365" height="420" xmlns="http://www.w3.org/2000/svg"><g><title>background</title><rect fill="none" id="canvas_background" height="422" width="367" y="-1" x="-1"/></g><g><title>Layer 1</title><g display="none" id="max_width__x2F__height"><path id="svg_1" d="m499.001,1l0,498l-498.001,0l0,-498l498.001,0m1,-1l-500.001,0l0,500l500.001,0l0,-500l0,0z"/></g><g id="androd"><path id="svg_2" d="m233.314,45.298l20.159,-29.272c1.197,-1.74 0.899,-4.024 -0.666,-5.104c-1.563,-1.074 -3.805,-0.543 -4.993,1.199l-20.951,30.409c-13.807,-5.439 -29.139,-8.47 -45.299,-8.47c-16.16,0 -31.496,3.028 -45.302,8.47l-20.948,-30.41c-1.201,-1.74 -3.439,-2.273 -5.003,-1.199c-1.564,1.077 -1.861,3.362 -0.664,5.104l20.166,29.272c-32.063,14.916 -54.548,43.26 -57.413,76.34l218.316,0c-2.855,-33.08 -25.341,-61.423 -57.402,-76.339" fill="#9FBF3B"/><path id="svg_3" d="m135.956,91.438c-6.673,0 -12.08,-5.407 -12.08,-12.079c0,-6.671 5.404,-12.08 12.08,-12.08c6.668,0 12.073,5.407 12.073,12.08c0.001,6.671 -5.405,12.079 -12.073,12.079" fill="#FFFFFF"/><path id="svg_4" d="m227.161,91.438c-6.668,0 -12.074,-5.407 -12.074,-12.079c0,-6.673 5.406,-12.08 12.074,-12.08c6.675,0 12.079,5.409 12.079,12.08c0,6.671 -5.406,12.079 -12.079,12.079" fill="#FFFFFF"/><path id="svg_5" d="m58.383,259.598c0,13.45 -10.904,24.354 -24.355,24.354l0,0c-13.45,0 -24.354,-10.904 -24.354,-24.354l0,-98.508c0,-13.45 10.904,-24.354 24.354,-24.354l0,0c13.451,0 24.355,10.904 24.355,24.354l0,98.508z" fill="#9FBF3B"/><path id="svg_6" d="m72.396,137.489l0,177.915c0,10.566 8.566,19.133 19.135,19.133l22.633,0l0,54.744c0,13.451 10.903,24.354 24.354,24.354c13.451,0 24.355,-10.903 24.355,-24.354l0,-54.744l37.371,0l0,54.744c0,13.451 10.902,24.354 24.354,24.354s24.354,-10.903 24.354,-24.354l0,-54.744l22.633,0c10.569,0 19.137,-8.562 19.137,-19.133l0,-177.915l-218.326,0z" fill="#9FBF3B"/><path id="svg_7" d="m304.734,259.598c0,13.45 10.903,24.354 24.354,24.354l0,0c13.45,0 24.354,-10.904 24.354,-24.354l0,-98.508c0,-13.45 -10.904,-24.354 -24.354,-24.354l0,0c-13.451,0 -24.354,10.904 -24.354,24.354l0,98.508z" fill="#9FBF3B"/></g></g></svg>