<svg id="Shape_1" data-name="Shape 1" xmlns="http://www.w3.org/2000/svg" width="377.854" height="430.299" viewBox="0 0 377.854 430.299">
  <g id="Group_26" data-name="Group 26">
    <path id="Path_2" data-name="Path 2" d="M433.417,770.419V507.1H290.446V772.761L173.005,937.4H550.858ZM421.53,871.35c-1.98,2.82-7.32,3.571-10.433,3.79-4.315.3-20.989.785-22.3,1.045-2.888.567-12.331,5.053-12.768,5.545s-.41.491-.157,1.072,5.128,5.093,6.842,6.931c2.226,2.389,8.474,8.972,8.815,12.12s-.068,5.011-2.977,7.326a32.091,32.091,0,0,1-9.675,5.121,58.173,58.173,0,0,1-10.474,2.594,33.285,33.285,0,0,1-8.849-.272c-1.085-.164-2.417-.464-3.475-.615a57.442,57.442,0,0,0-7.34-.028c-8.2.15-16.305-4.636-17.473-5.53a12.877,12.877,0,0,1-4.575-6.009c-.86-2.363-1.031-8.242-.075-10.024a14.669,14.669,0,0,1,5.292-5.339c1.5-.758,7.415-3.592,8.276-4.083,1.222-.683,2.663-2.847,2.267-4.233a5.271,5.271,0,0,0-3-3.714,33.971,33.971,0,0,0-9.32-3.065c-2.929-.512-6.316-.84-9.552-1.127-4.145-.369-8.788-.4-13.014-.546-1.222-.048-5.7-.594-6.48-1.161a3.664,3.664,0,0,1-1.345-2.1,13.294,13.294,0,0,1-.341-4.767c.225-2.56.751-5,1.174-7.524a16.837,16.837,0,0,1,.806-3.407c.3-.772.819-1.516,1.093-2.3a14.286,14.286,0,0,0,.731-6.391,5.866,5.866,0,0,1-.15-1.966,3.531,3.531,0,0,1,1.174-2.261c3.455-2.908,12.256-11.894,12.5-12.051a7.446,7.446,0,0,1,2.567-1.086c.5-.116,1.236-.232,1.687-.342a8.55,8.55,0,0,0,4.9-2.642c4.964-5.872,9.423-12.242,14.25-18.238a33.961,33.961,0,0,0,3.53-5.831c.778-1.509,2.847-5.107,4.623-7.723.355-.533,1.441-3.346,1.686-3.529.785-.588,1.68-.021,1.489-.7-.41-1.489-4.8-3.571-6.569-4.739-1.291-.847-2.315-1.324-2.5-3.065a2.669,2.669,0,0,1,.512-1.9c-3.284-.867-1.6-3.128.171-5.292,1.994-2.431,6.507-6.125,9.955-9.675,1.27-1.311,2.014-2.014,1.878-2.888-.355-2.178-2.089.554-1.912-2.7a67.423,67.423,0,0,0-.082-8.275c-.259-3.742-1.086-8.4-1.557-13.274-1.052-11.006-2.014-23.153-2.991-28.643-1.891-10.658-8.323-36.154-10.208-41.862-.7-2.11-.587-4.424-1.352-6.542a6.624,6.624,0,0,0-1.789-2.772c-.949-.833-2.478-.792-3.257-1.673a4.519,4.519,0,0,1-.785-1.543,152.151,152.151,0,0,1-4.09-15.226q-1.127-4.783-2.165-9.581a15.154,15.154,0,0,1-.3-4.574c.28-3.168,1-6.288,1.133-9.491.075-1.755.082-3.5.048-5.257-.048-2.26-.437-4.643-.307-6.9.478-8.208.5-21.01,2.964-24.963a3.106,3.106,0,0,1,1.256-1.14c6.316-3.223,13.26-3.66,16.578-7.388,3.407-3.8,3.031-6.084,3.031-9.129s-3.031-5.708-4.158-9.136,0-12.174,1.885-15.984c1.141-2.281,5.005-6.8,8.009-5.77a15.091,15.091,0,0,0,1.748.744c1.7.355,3.086-1.079,4.862-.539a11.677,11.677,0,0,1,3.64,2.021c2.738,2.137,5,5.306,5.189,8.876.382,6.848-7.183,17.883-6.808,19.788s4.923,5.708,6.432,6.09c3.2.806,6.377,1.755,9.539,2.7s8.487,1.406,9.792,5.052a54.149,54.149,0,0,1,1.557,6.807c.587,2.766,1.441,7.307,1.885,10.1.1.655.2,1.318.3,1.973.758,5.332-1.509,20.935.382,23.215s4.909,3.045,4.534,6.473-.751,7.606,0,10.268a34.2,34.2,0,0,1,1.141,11.035c-.382,3.428,0,4.568-1.516,6.473s-4.541,1.14-5.292,3.045-.061,29.92-.758,43c-.348,6.507,1.837,21.958,2.212,25.393.376,3.414.819,18.661.942,21.187.13,2.746,1,8.836,1.761,13.4.321,1.96.717,5.6.355,6.084s-.922.028-1.017.417a8.529,8.529,0,0,0,.778,4.513c1.134,2.663,6.971,10.666,6.207,13.711a4.2,4.2,0,0,1-.8,1.693,2.946,2.946,0,0,1,.738,2.39c-.178,2.574-3.475,4.753-4.643,5.141-1.222.417-.014,2.007-.007,3.988a66.4,66.4,0,0,0,.635,8.521c.266,1.236,2.322,6.5,2.745,7.688.485,1.366,4.827,9.307,6.207,11.963a22.109,22.109,0,0,0,5.77,6.842c2.021,1.55,1.652.635,4.029.478,2.171-.136,3.871,2.636,4.227,4.315s1.325,4.145,1.5,5.7.737,3.687.819,4.69c.075.929-.2,1.4-1.345,2.752s1.379,10.379,1.864,12.536C424.923,861.627,423.366,868.741,421.53,871.35ZM377.3,771.512a8.2,8.2,0,0,1-.635-.937c-.628-1.078.177-7.339.833-9.025.423-1.073-.874-.6-.84-2.165.109-3.912.375-9.382.082-13.874a97.83,97.83,0,0,0-1.222-11.239c-.526-2.649-2.765-17.657-2.663-22.211s-1.878-16.395-2.233-21.611a95.081,95.081,0,0,0-2.943-14.086c-.526-1.38-1.372-1.694-2.533-.315-.464.561,1.14,8.071,1.215,17.5.027,3.407-.4,7.019-.273,10.569.382,10.734,1.468,20.88,1.6,22.95.314,4.663,2.39,11.75,3.127,18.1.478,4.1-.751,9.75-.512,12.187.123,1.2-1.441.239-1.318,1.625.218,2.485,2.479,5.442,2.212,8.173-.287,2.916-.191,4.479-3.114,5.422-1.864.6-5.715,2.1-7.627,2.506a27.9,27.9,0,0,0-5.578,2.526,53.263,53.263,0,0,0,5.285,2.355c1.386.4,3.94.444,5.285.984,3.086,1.242,4.588,1.987,3.673,6.855-.28,1.454-1.98,2.219-2.472,4.056-.075.314.567.641.485.977-1.475,5.872-3.612,13.622-.375,18.169a3.985,3.985,0,0,0,2.82,1.543,5.9,5.9,0,0,0,3.626-1.126c1.27-.922,2.465-6.6,2.724-10.631a36.717,36.717,0,0,0,.369-5.435c-.191-2.4-.1-9.409-.041-11.84.041-1.762-.13-2.588.935-2.875,1.564-.41-1.072-4.684-.86-7.312A2.593,2.593,0,0,1,377.3,771.512Z" transform="translate(-173.005 -507.098)" fill="#fff"/>
  </g>
</svg>
