<svg width="685.516" height="260" xmlns="http://www.w3.org/2000/svg" xmlns:xlink="http://www.w3.org/1999/xlink"><g><title>background</title><rect x="-1" y="-1" width="687.516" height="262" id="canvas_background" fill="none"/></g><g><title>Layer 1</title><path fill="url(#SVGID_1_)" d="m199.116,193.824c-4.661,-4.712 -4.62,-6.31 0.092,-10.971l53.405,2.989c4.712,-4.66 12.698,1.855 17.359,6.567l31.894,23.462c4.661,4.712 21.862,16.554 17.15,21.214l-30.532,18.496c-4.712,4.66 -22.814,5.416 -27.474,0.704l-61.894,-62.461z" id="svg_1"/><path fill="url(#SVGID_2_)" d="m387.043,175.665l28.322,28.099c6.78,-1.098 7.903,-4.515 7.103,-12.136l-28.235,-28.013l0,0c-1.257,9.644 -0.877,11.748 -7.19,12.05l0,0z" id="svg_2"/><path fill="url(#SVGID_3_)" d="m259.966,67.23l-28.337,-28.066c0,-6.326 4.536,-13.614 14.178,-14.87l28.013,28.236l0,0c-9.643,1.256 -13.552,8.388 -13.854,14.7l0,0z" id="svg_3"/><g id="svg_18"><g id="svg_19"><g id="svg_20"><g id="svg_21"><g id="svg_22"><g id="svg_23"><g id="svg_24"><g id="svg_25"><defs><path id="SVGID_6_" d="m415.366,203.764l-28.322,-28.099c3.908,-0.336 7.137,-3.792 7.137,-7.743l28.341,28.097c-0.038,3.944 -3.235,7.381 -7.156,7.745z"/><linearGradient id="SVGID_1_" x1="0.174808" y1="0.830096" x2="0.984746" y2="-0.300014"><stop stop-opacity="0" stop-color="#000000"/><stop offset="1" stop-color="#010201"/></linearGradient><linearGradient id="SVGID_2_" x1="0.343462" y1="0.650245" x2="0.688465" y2="0.384495"><stop stop-color="#C33A28"/><stop offset="0.8825" stop-color="#8A241C"/></linearGradient><linearGradient id="SVGID_3_" x1="0.304013" y1="0.791431" x2="0.660774" y2="0.184225"><stop stop-color="#8A241C"/><stop offset="1" stop-color="#C33A28"/></linearGradient></defs><clipPath id="SVGID_7_"><use xlink:href="#SVGID_6_" id="svg_26"/></clipPath></g><g id="svg_27"><g id="svg_28"><polygon fill="#8A241C" points="422.535,186.136 394.18,158.045 437.028,154.279 465.364,182.378" id="svg_29"/></g><g id="svg_30"><polygon fill="#8A241C" points="422.535,186.136 394.18,158.045 437.028,154.279 465.364,182.378" id="svg_31"/></g></g><g id="svg_32"><polygon fill="#8A241C" points="422.521,196.019 394.18,167.922 394.18,158.045 422.535,186.136" id="svg_33"/></g><g id="svg_34"><polygon fill="#C33A28" points="309.806,213.038 281.484,184.938 387.043,175.665 415.366,203.764" id="svg_35"/></g><g id="svg_36"><defs><path id="SVGID_8_" d="m304.619,211.219c-0.437,-0.423 -1.003,-0.979 -1.439,-1.406c-8.959,-8.901 -17.937,-17.78 -26.917,-26.695c1.298,1.291 3.141,1.994 5.222,1.82l28.322,28.101c-2.066,0.183 -3.89,-0.558 -5.188,-1.82z"/></defs><clipPath id="SVGID_9_"><use xlink:href="#SVGID_8_" id="svg_37"/></clipPath><g clip-path="url(#SVGID_9_)" id="svg_38"><path fill="#942820" d="m304.619,211.219l-28.356,-28.102c0.091,0.111 0.201,0.176 0.293,0.257l28.339,28.119c-0.109,-0.111 -0.181,-0.181 -0.276,-0.274" id="svg_39"/><path fill="#972920" d="m304.895,211.493l-28.339,-28.119c0.146,0.155 0.31,0.268 0.457,0.384l28.337,28.091c-0.162,-0.12 -0.308,-0.257 -0.455,-0.356" id="svg_40"/><path fill="#9A2C21" d="m305.349,211.849l-28.337,-28.091c0.127,0.104 0.274,0.183 0.419,0.272l28.341,28.083c-0.13,-0.083 -0.277,-0.18 -0.423,-0.264" id="svg_41"/><path fill="#9E2D21" d="m305.772,212.113l-28.341,-28.083c0.145,0.097 0.291,0.167 0.438,0.231l28.341,28.09c-0.147,-0.056 -0.293,-0.135 -0.438,-0.238" id="svg_42"/><path fill="#A22C23" d="m306.209,212.352l-28.341,-28.09c0.13,0.074 0.277,0.138 0.403,0.221l28.336,28.062c-0.125,-0.064 -0.253,-0.119 -0.398,-0.193" id="svg_43"/><path fill="#A72D24" d="m306.608,212.544l-28.336,-28.062c0.146,0.027 0.311,0.09 0.438,0.146l28.321,28.078c-0.131,-0.056 -0.276,-0.091 -0.423,-0.162" id="svg_44"/><path fill="#AB3125" d="m307.031,212.706l-28.321,-28.078c0.145,0.035 0.293,0.101 0.438,0.136l28.337,28.075c-0.163,-0.03 -0.309,-0.093 -0.454,-0.133" id="svg_45"/><path fill="#AE3125" d="m307.485,212.839l-28.337,-28.075c0.125,0.039 0.292,0.056 0.454,0.095l28.319,28.07c-0.161,-0.029 -0.306,-0.063 -0.436,-0.09" id="svg_46"/><path fill="#B13126" d="m307.921,212.929l-28.319,-28.07c0.146,0.017 0.291,0.042 0.457,0.063l28.341,28.076c-0.146,0 -0.332,-0.014 -0.479,-0.069" id="svg_47"/><path fill="#B63327" d="m308.399,212.998l-28.341,-28.076c0.167,0.026 0.347,0.026 0.509,0.034l28.341,28.099c-0.181,0 -0.325,-0.017 -0.509,-0.057" id="svg_48"/><path fill="#B63627" d="m308.909,213.055l-28.341,-28.099c0.187,0.009 0.388,0.009 0.569,0.009l28.355,28.09c-0.2,0 -0.382,0 -0.583,0" id="svg_49"/><path fill="#BB3727" d="m309.493,213.055l-28.355,-28.09c0.109,-0.017 0.236,-0.017 0.347,-0.027l28.322,28.101c-0.113,0.016 -0.224,0.016 -0.314,0.016" id="svg_50"/></g></g><g id="svg_51"><defs><path id="SVGID_10_" d="m263.4,255.582l-28.341,-28.088c-2.261,-2.215 -3.63,-5.359 -3.63,-8.905l28.355,28.062c0.001,3.574 1.351,6.671 3.616,8.931z"/></defs><clipPath id="SVGID_11_"><use xlink:href="#SVGID_10_" id="svg_52"/></clipPath><g clip-path="url(#SVGID_11_)" id="svg_53"><path fill="#82211A" d="m263.4,255.582l-28.341,-28.088c-2.022,-2.006 -3.337,-4.739 -3.574,-7.854l28.336,28.096c0.241,3.11 1.551,5.835 3.579,7.846" id="svg_54"/><path fill="#87241B" d="m259.821,247.736l-28.336,-28.096c-0.036,-0.332 -0.036,-0.705 -0.056,-1.052l28.355,28.062c0.001,0.372 0.023,0.714 0.037,1.086" id="svg_55"/></g></g><g id="svg_56"><path fill="#D83E27" d="m465.364,182.378l-0.069,46.231c-0.018,7.498 -6.112,14.136 -13.653,14.795l-178.28,15.663c-7.518,0.664 -13.612,-4.919 -13.577,-12.416l0.091,-46.242l42.851,-3.778l-0.021,9.905c0,3.932 3.173,6.838 7.102,6.502l104.56,-9.274c3.921,-0.363 8.118,-3.801 8.155,-7.745l0.014,-9.883l42.827,-3.758z" id="svg_57"/></g><g id="svg_58"><g id="svg_59"><polygon fill="#8A241C" points="259.875,200.409 231.539,172.328 274.403,168.555 302.726,196.631" id="svg_60"/></g><g id="svg_61"><polygon fill="#8A241C" points="259.875,200.409 231.539,172.328 274.403,168.555 302.726,196.631" id="svg_62"/></g></g><g id="svg_63"><polygon fill="#8A241C" points="259.785,246.651 231.429,218.589 231.539,172.328 259.875,200.409" id="svg_64"/></g></g><g id="svg_65"><g id="svg_66"><g id="svg_67"><polygon fill="#E6584F" points="465.128,104.346 465.387,172.402 422.535,176.16 422.286,108.103" id="svg_68"/></g><g id="svg_69"><polygon fill="#E2493C" points="465.128,104.346 465.387,172.402 422.535,176.16 422.286,108.103" id="svg_70"/></g></g><g id="svg_71"><polygon fill="#8A241C" points="422.535,176.16 394.235,148.07 393.945,79.997 422.286,108.103" id="svg_72"/></g><g id="svg_73"><g id="svg_74"><polygon fill="#8A241C" points="422.286,108.103 393.945,79.997 436.792,76.256 465.128,104.346" id="svg_75"/></g><g id="svg_76"><polygon fill="#8A241C" points="422.286,108.103 393.945,79.997 436.792,76.256 465.128,104.346" id="svg_77"/></g></g></g><g id="svg_78"><g id="svg_79"><g id="svg_80"><polygon fill="#E6584F" points="302.483,118.6 302.76,186.677 259.895,190.435 259.603,122.377" id="svg_81"/></g><g id="svg_82"><polygon fill="#E2493C" points="302.483,118.6 302.76,186.677 259.895,190.435 259.603,122.377" id="svg_83"/></g></g><g id="svg_84"><polygon fill="#8A241C" points="259.895,190.435 231.556,162.344 231.283,94.308 259.603,122.377" id="svg_85"/></g><g id="svg_86"><polygon fill="#8A241C" points="259.603,122.377 231.283,94.308 274.146,90.538 302.483,118.6" id="svg_87"/></g></g></g><g id="svg_88"><g id="svg_89"><g id="svg_90"><polygon fill="#8A241C" points="422.502,97.945 394.143,69.885 394.18,61.326 422.521,89.415" id="svg_91"/></g><g id="svg_92"><defs><path id="SVGID_12_" d="m392.28,56.642c9.456,9.363 18.887,18.73 28.322,28.089c1.189,1.171 1.919,2.808 1.919,4.684l-28.341,-28.089c0,-1.877 -0.728,-3.506 -1.9,-4.684z"/></defs><clipPath id="SVGID_13_"><use xlink:href="#SVGID_12_" id="svg_93"/></clipPath><g clip-path="url(#SVGID_13_)" id="svg_94"><path fill="#87241B" d="m422.521,89.415l-28.341,-28.089c0,-0.195 -0.037,-0.356 -0.055,-0.551l28.358,28.084c0.019,0.171 0.038,0.382 0.038,0.556" id="svg_95"/><path fill="#82211A" d="m422.484,88.858l-28.358,-28.084c-0.107,-1.644 -0.783,-3.088 -1.846,-4.133l28.322,28.089c1.061,1.055 1.753,2.491 1.882,4.128" id="svg_96"/></g></g><g id="svg_97"><g id="svg_98"><defs><path id="SVGID_14_" d="m433.522,12.333c1.9,1.846 3.794,3.729 5.655,5.588c7.574,7.494 15.13,14.985 22.686,22.466c-2.481,-2.445 -6.02,-3.8 -9.964,-3.486l-28.34,-28.07c3.943,-0.348 7.5,1.013 9.963,3.502z"/></defs><clipPath id="SVGID_15_"><use xlink:href="#SVGID_14_" id="svg_99"/></clipPath></g><g id="svg_100"><defs><path id="SVGID_16_" d="m433.522,12.333c1.9,1.846 3.794,3.729 5.655,5.588c7.574,7.494 15.13,14.985 22.686,22.466c-2.481,-2.445 -6.02,-3.8 -9.964,-3.486l-28.34,-28.07c3.943,-0.348 7.5,1.013 9.963,3.502z"/></defs><use xlink:href="#SVGID_16_" fill="#C33A28" id="svg_101"/><clipPath id="SVGID_17_"><use xlink:href="#SVGID_16_" id="svg_102"/></clipPath><g clip-path="url(#SVGID_17_)" id="svg_103"><path fill="#C33A28" d="m423.559,8.832l28.34,28.07c0.18,0 0.381,-0.027 0.584,-0.027l-28.341,-28.071c-0.183,0 -0.381,0.008 -0.583,0.028z" id="svg_104"/><path fill="#C33A28" d="m424.142,8.804l28.341,28.071c0.362,-0.028 0.729,-0.028 1.077,-0.008l-28.322,-28.063c-0.349,-0.028 -0.73,-0.028 -1.096,0z" id="svg_105"/><path fill="#C33A28" d="m425.238,8.804l28.322,28.062c0.346,0.008 0.689,0.035 1.005,0.089l-28.341,-28.087c-0.334,-0.048 -0.639,-0.064 -0.986,-0.064z" id="svg_106"/><path fill="#C33A28" d="m426.224,8.868l28.341,28.088c0.31,0.037 0.616,0.073 0.909,0.136l-28.336,-28.098c-0.293,-0.044 -0.604,-0.098 -0.914,-0.126z" id="svg_107"/><path fill="#C33A28" d="m427.138,8.994l28.336,28.098c0.291,0.027 0.604,0.103 0.876,0.174l-28.336,-28.061c-0.29,-0.072 -0.567,-0.135 -0.876,-0.211z" id="svg_108"/><path fill="#C33A28" d="m428.014,9.205l28.336,28.061c0.271,0.092 0.547,0.158 0.819,0.258l-28.334,-28.073c-0.279,-0.09 -0.533,-0.192 -0.821,-0.246z" id="svg_109"/><path fill="#C33A28" d="m428.835,9.451l28.334,28.072c0.279,0.083 0.551,0.194 0.823,0.301l-28.335,-28.079c-0.277,-0.102 -0.549,-0.21 -0.822,-0.294z" id="svg_110"/><path fill="#C33A28" d="m429.657,9.745l28.336,28.079c0.291,0.119 0.53,0.227 0.807,0.386l-28.341,-28.102c-0.258,-0.117 -0.531,-0.264 -0.802,-0.363z" id="svg_111"/><path fill="#C33A28" d="m430.458,10.108l28.341,28.102c0.271,0.128 0.543,0.281 0.819,0.436l-28.359,-28.099c-0.258,-0.125 -0.53,-0.28 -0.801,-0.439z" id="svg_112"/><path fill="#C33A28" d="m431.259,10.548l28.359,28.099c0.274,0.166 0.547,0.36 0.823,0.549l-28.345,-28.07c-0.249,-0.202 -0.544,-0.383 -0.837,-0.578z" id="svg_113"/><path fill="#C33A28" d="m432.097,11.125l28.345,28.07c0.305,0.23 0.579,0.446 0.852,0.67l-28.32,-28.055c-0.294,-0.258 -0.563,-0.494 -0.877,-0.685z" id="svg_114"/><path fill="#C33A28" d="m433.522,12.333c-0.18,-0.211 -0.366,-0.377 -0.549,-0.522l28.32,28.055c0.221,0.2 0.385,0.355 0.569,0.522l-28.34,-28.055z" id="svg_115"/></g></g><g id="svg_116"><defs><path id="SVGID_18_" d="m433.522,12.333c1.9,1.846 3.794,3.729 5.655,5.588c7.574,7.494 15.13,14.985 22.686,22.466c-2.481,-2.445 -6.02,-3.8 -9.964,-3.486l-28.34,-28.07c3.943,-0.348 7.5,1.013 9.963,3.502z"/></defs><clipPath id="SVGID_19_"><use xlink:href="#SVGID_18_" id="svg_117"/></clipPath></g></g><g id="svg_118"><polygon fill="#8A241C" points="259.841,112.118 231.5,84.037 231.629,39.167 259.966,67.23" id="svg_119"/></g><g id="svg_120"><polygon fill="#C33A28" points="273.599,52.463 245.263,24.375 423.559,8.832 451.899,36.902" id="svg_121"/></g><g id="svg_122"><g id="svg_123"><path fill="#E6584F" d="m273.599,52.463l178.3,-15.562c7.519,-0.621 13.596,4.901 13.573,12.443l-0.141,44.869l-42.829,3.731l0.019,-8.53c0,-3.924 -3.16,-6.83 -7.099,-6.482l-105.583,9.188c-3.907,0.348 -7.113,3.813 -7.113,7.737l-0.021,8.52l-42.863,3.741l0.125,-44.888c0.019,-7.495 6.132,-14.099 13.632,-14.767z" id="svg_124"/></g><g id="svg_125"><path fill="#E6584F" d="m273.599,52.463l178.3,-15.562c7.519,-0.621 13.596,4.901 13.573,12.443l-0.141,44.869l-42.829,3.731l0.019,-8.53c0,-3.924 -3.16,-6.83 -7.099,-6.482l-105.583,9.188c-3.907,0.348 -7.113,3.813 -7.113,7.737l-0.021,8.52l-42.863,3.741l0.125,-44.888c0.019,-7.495 6.132,-14.099 13.632,-14.767z" id="svg_126"/></g></g><g id="svg_127"><defs><path id="SVGID_20_" d="m259.966,67.23l-28.337,-28.062c0.017,-7.514 6.113,-14.143 13.633,-14.792l28.336,28.088c-7.499,0.667 -13.612,7.271 -13.632,14.766z"/></defs><clipPath id="SVGID_21_"><use xlink:href="#SVGID_20_" id="svg_128"/></clipPath></g></g></g></g></g></g></g></g></g></svg>